<mxfile host="app.diagrams.net" modified="2022-07-28T17:48:16.582Z" agent="5.0 (Windows NT 10.0; Win64; x64) AppleWebKit/537.36 (KHTML, like Gecko) Chrome/103.0.0.0 Safari/537.36" etag="NCvhCt2dTjYnhc7xlpHF" version="20.2.1" type="github">
  <diagram id="C5RBs43oDa-KdzZeNtuy" name="Page-1">
    <mxGraphModel dx="1447" dy="878" grid="1" gridSize="10" guides="1" tooltips="1" connect="1" arrows="1" fold="1" page="1" pageScale="1" pageWidth="827" pageHeight="1169" math="0" shadow="0">
      <root>
        <mxCell id="WIyWlLk6GJQsqaUBKTNV-0" />
        <mxCell id="WIyWlLk6GJQsqaUBKTNV-1" parent="WIyWlLk6GJQsqaUBKTNV-0" />
        <mxCell id="-xT1aG8KRK20NXAXzAjb-0" value="" style="rounded=0;whiteSpace=wrap;html=1;fillColor=#3333FF;strokeColor=none;" vertex="1" parent="WIyWlLk6GJQsqaUBKTNV-1">
          <mxGeometry x="60" y="40" width="410" height="190" as="geometry" />
        </mxCell>
        <mxCell id="-xT1aG8KRK20NXAXzAjb-1" value="" style="whiteSpace=wrap;html=1;aspect=fixed;fillColor=#000000;shadow=0;glass=0;rounded=0;sketch=0;direction=south;" vertex="1" parent="WIyWlLk6GJQsqaUBKTNV-1">
          <mxGeometry x="190" y="110" width="50" height="50" as="geometry" />
        </mxCell>
        <mxCell id="-xT1aG8KRK20NXAXzAjb-2" value="" style="rounded=0;whiteSpace=wrap;html=1;strokeColor=none;fillColor=#B3B3B3;" vertex="1" parent="WIyWlLk6GJQsqaUBKTNV-1">
          <mxGeometry x="410" y="160" width="80" height="50" as="geometry" />
        </mxCell>
        <mxCell id="-xT1aG8KRK20NXAXzAjb-3" value="" style="rounded=1;whiteSpace=wrap;html=1;strokeColor=none;fillColor=#000000;" vertex="1" parent="WIyWlLk6GJQsqaUBKTNV-1">
          <mxGeometry x="440" y="70" width="40" height="40" as="geometry" />
        </mxCell>
        <mxCell id="-xT1aG8KRK20NXAXzAjb-4" value="" style="rounded=0;whiteSpace=wrap;html=1;strokeColor=none;fillColor=#000000;" vertex="1" parent="WIyWlLk6GJQsqaUBKTNV-1">
          <mxGeometry x="70" y="50" width="20" height="170" as="geometry" />
        </mxCell>
        <mxCell id="-xT1aG8KRK20NXAXzAjb-5" value="" style="rounded=0;whiteSpace=wrap;html=1;strokeColor=none;fillColor=#000000;" vertex="1" parent="WIyWlLk6GJQsqaUBKTNV-1">
          <mxGeometry x="95" y="50" width="90" height="10" as="geometry" />
        </mxCell>
        <mxCell id="-xT1aG8KRK20NXAXzAjb-6" value="" style="rounded=0;whiteSpace=wrap;html=1;fillColor=#000000;strokeColor=none;" vertex="1" parent="WIyWlLk6GJQsqaUBKTNV-1">
          <mxGeometry x="190" y="50" width="90" height="10" as="geometry" />
        </mxCell>
        <mxCell id="-xT1aG8KRK20NXAXzAjb-7" value="" style="rounded=0;whiteSpace=wrap;html=1;fillColor=#000000;strokeColor=none;" vertex="1" parent="WIyWlLk6GJQsqaUBKTNV-1">
          <mxGeometry x="285" y="50" width="100" height="10" as="geometry" />
        </mxCell>
        <mxCell id="-xT1aG8KRK20NXAXzAjb-9" value="" style="rounded=0;whiteSpace=wrap;html=1;fillColor=#000000;strokeColor=none;" vertex="1" parent="WIyWlLk6GJQsqaUBKTNV-1">
          <mxGeometry x="95" y="210" width="80" height="10" as="geometry" />
        </mxCell>
        <mxCell id="-xT1aG8KRK20NXAXzAjb-10" value="" style="rounded=0;whiteSpace=wrap;html=1;fillColor=#000000;strokeColor=none;" vertex="1" parent="WIyWlLk6GJQsqaUBKTNV-1">
          <mxGeometry x="190" y="210" width="90" height="10" as="geometry" />
        </mxCell>
        <mxCell id="-xT1aG8KRK20NXAXzAjb-11" value="" style="rounded=0;whiteSpace=wrap;html=1;strokeColor=none;fillColor=#000000;" vertex="1" parent="WIyWlLk6GJQsqaUBKTNV-1">
          <mxGeometry x="290" y="210" width="90" height="10" as="geometry" />
        </mxCell>
        <mxCell id="-xT1aG8KRK20NXAXzAjb-12" value="" style="ellipse;whiteSpace=wrap;html=1;strokeColor=none;fillColor=#E6E6E6;" vertex="1" parent="WIyWlLk6GJQsqaUBKTNV-1">
          <mxGeometry x="255" y="100" width="30" height="10" as="geometry" />
        </mxCell>
        <mxCell id="-xT1aG8KRK20NXAXzAjb-13" value="" style="ellipse;whiteSpace=wrap;html=1;aspect=fixed;fillColor=#E6E6E6;strokeColor=none;" vertex="1" parent="WIyWlLk6GJQsqaUBKTNV-1">
          <mxGeometry x="380" y="80" width="20" height="20" as="geometry" />
        </mxCell>
        <mxCell id="-xT1aG8KRK20NXAXzAjb-14" value="" style="ellipse;whiteSpace=wrap;html=1;aspect=fixed;strokeColor=none;fillColor=#000000;" vertex="1" parent="WIyWlLk6GJQsqaUBKTNV-1">
          <mxGeometry x="410" y="80" width="20" height="20" as="geometry" />
        </mxCell>
        <mxCell id="-xT1aG8KRK20NXAXzAjb-20" value="ARDUINO MEGA" style="text;html=1;strokeColor=none;fillColor=none;align=left;verticalAlign=middle;whiteSpace=wrap;rounded=0;shadow=0;glass=0;sketch=0;fontColor=#FFFFFF;fontSize=27;fontStyle=1" vertex="1" parent="WIyWlLk6GJQsqaUBKTNV-1">
          <mxGeometry x="95" y="170" width="220" height="30" as="geometry" />
        </mxCell>
        <mxCell id="-xT1aG8KRK20NXAXzAjb-21" value="" style="rounded=0;whiteSpace=wrap;html=1;shadow=0;glass=0;sketch=0;fontSize=27;fontColor=#FFFFFF;strokeColor=none;fillColor=#80FF00;" vertex="1" parent="WIyWlLk6GJQsqaUBKTNV-1">
          <mxGeometry x="55" y="270" width="425" height="230" as="geometry" />
        </mxCell>
        <mxCell id="-xT1aG8KRK20NXAXzAjb-22" value="&lt;span style=&quot;font-family: Verdana; font-size: 22px;&quot;&gt;Ethernet&lt;/span&gt;" style="rounded=0;whiteSpace=wrap;html=1;shadow=0;glass=0;sketch=0;fontSize=22;fontColor=#FFFFFF;strokeColor=none;fillColor=#999999;fontStyle=1" vertex="1" parent="WIyWlLk6GJQsqaUBKTNV-1">
          <mxGeometry x="370" y="280" width="125" height="60" as="geometry" />
        </mxCell>
        <mxCell id="-xT1aG8KRK20NXAXzAjb-23" value="USB" style="rounded=0;whiteSpace=wrap;html=1;shadow=0;glass=0;sketch=0;fontSize=25;fontColor=#FFFFFF;strokeColor=none;fillColor=#999999;fontStyle=1" vertex="1" parent="WIyWlLk6GJQsqaUBKTNV-1">
          <mxGeometry x="370" y="350" width="110" height="60" as="geometry" />
        </mxCell>
        <mxCell id="-xT1aG8KRK20NXAXzAjb-24" value="USB" style="rounded=0;whiteSpace=wrap;html=1;shadow=0;glass=0;sketch=0;fontSize=25;fontColor=#FFFFFF;strokeColor=none;fillColor=#999999;fontStyle=1" vertex="1" parent="WIyWlLk6GJQsqaUBKTNV-1">
          <mxGeometry x="370" y="420" width="110" height="60" as="geometry" />
        </mxCell>
      </root>
    </mxGraphModel>
  </diagram>
</mxfile>
